REM DIRINDEX 1\6,1\2\7,1\2\8,1\2\9,1\3\10,1\3\11,1\4\12,1\4\13,1\4\14,1\5\15,1\5\16,1\5\17
REM DIRNAME folder01,folder02,folder03,folder04,folder05,folder06,folder07,folder08,folder09,folder10,folder11,folder12,folder13,folder14,folder15,folder16,folder17
TITLE ""
FILE "P2Q_k_001-010.mp3" MP3
  TRACK 01 AUDIO
    TITLE "6:cjc040_1248"
    INDEX 01 00:00:00
  TRACK 02 AUDIO
    TITLE "0:"
    INDEX 01 00:01:50
  TRACK 03 AUDIO
    TITLE "15:cjc040_1249"
    INDEX 01 00:02:61
  TRACK 04 AUDIO
    TITLE "0:"
    INDEX 01 00:04:29
  TRACK 05 AUDIO
    TITLE "16:cjc040_1250"
    INDEX 01 00:05:01
  TRACK 06 AUDIO
    TITLE "0:"
    INDEX 01 00:06:47
  TRACK 07 AUDIO
    TITLE "17:cjc040_1251"
    INDEX 01 00:07:19
  TRACK 08 AUDIO
    TITLE "17:cjc040_1252"
    INDEX 01 00:13:16
  TRACK 09 AUDIO
    TITLE "0:"
    INDEX 01 00:14:35
  TRACK 10 AUDIO
    TITLE "15:cjc040_1253"
    INDEX 01 00:15:11
  TRACK 11 AUDIO
    TITLE "0:"
    INDEX 01 00:16:73
  TRACK 12 AUDIO
    TITLE "16:cjc040_1254"
    INDEX 01 00:17:43
  TRACK 13 AUDIO
    TITLE "0:"
    INDEX 01 00:19:16
  TRACK 14 AUDIO
    TITLE "17:cjc040_1255"
    INDEX 01 00:19:69
  TRACK 15 AUDIO
    TITLE "17:cjc040_1256"
    INDEX 01 00:22:58
  TRACK 16 AUDIO
    TITLE "0:"
    INDEX 01 00:24:35
  TRACK 17 AUDIO
    TITLE "15:cjc040_1257"
    INDEX 01 00:25:13
  TRACK 18 AUDIO
    TITLE "0:"
    INDEX 01 00:27:10
  TRACK 19 AUDIO
    TITLE "16:cjc040_1258"
    INDEX 01 00:27:69
  TRACK 20 AUDIO
    TITLE "0:"
    INDEX 01 00:30:28
  TRACK 21 AUDIO
    TITLE "17:cjc040_1259"
    INDEX 01 00:31:08
  TRACK 22 AUDIO
    TITLE "17:cjc040_1260"
    INDEX 01 00:34:08
  TRACK 23 AUDIO
    TITLE "0:"
    INDEX 01 00:36:35
  TRACK 24 AUDIO
    TITLE "15:cjc040_1261"
    INDEX 01 00:37:08
  TRACK 25 AUDIO
    TITLE "0:"
    INDEX 01 00:38:53
  TRACK 26 AUDIO
    TITLE "16:cjc040_1262"
    INDEX 01 00:39:29
  TRACK 27 AUDIO
    TITLE "0:"
    INDEX 01 00:40:50
  TRACK 28 AUDIO
    TITLE "17:cjc040_1263"
    INDEX 01 00:41:32
  TRACK 29 AUDIO
    TITLE "17:cjc040_1264"
    INDEX 01 00:44:58
  TRACK 30 AUDIO
    TITLE "0:"
    INDEX 01 00:47:38
  TRACK 31 AUDIO
    TITLE "15:cjc040_1265"
    INDEX 01 00:48:16
  TRACK 32 AUDIO
    TITLE "0:"
    INDEX 01 00:50:03
  TRACK 33 AUDIO
    TITLE "16:cjc040_1266"
    INDEX 01 00:50:58
  TRACK 34 AUDIO
    TITLE "0:"
    INDEX 01 00:53:02
  TRACK 35 AUDIO
    TITLE "17:cjc040_1267"
    INDEX 01 00:53:55
  TRACK 36 AUDIO
    TITLE "17:cjc040_1268"
    INDEX 01 00:56:24
  TRACK 37 AUDIO
    TITLE "0:"
    INDEX 01 00:59:28
  TRACK 38 AUDIO
    TITLE "15:cjc040_1269"
    INDEX 01 01:00:10
  TRACK 39 AUDIO
    TITLE "0:"
    INDEX 01 01:01:56
  TRACK 40 AUDIO
    TITLE "16:cjc040_1270"
    INDEX 01 01:02:32
  TRACK 41 AUDIO
    TITLE "0:"
    INDEX 01 01:03:71
  TRACK 42 AUDIO
    TITLE "17:cjc040_1271"
    INDEX 01 01:04:47
  TRACK 43 AUDIO
    TITLE "17:cjc040_1272"
    INDEX 01 01:07:29
  TRACK 44 AUDIO
    TITLE "0:"
    INDEX 01 01:10:65
  TRACK 45 AUDIO
    TITLE "15:cjc040_1273"
    INDEX 01 01:11:45
  TRACK 46 AUDIO
    TITLE "0:"
    INDEX 01 01:12:68
  TRACK 47 AUDIO
    TITLE "16:cjc040_1274"
    INDEX 01 01:13:45
  TRACK 48 AUDIO
    TITLE "0:"
    INDEX 01 01:17:20
  TRACK 49 AUDIO
    TITLE "17:cjc040_1275"
    INDEX 01 01:18:04
  TRACK 50 AUDIO
    TITLE "17:cjc040_1276"
    INDEX 01 01:21:23
  TRACK 51 AUDIO
    TITLE "0:"
    INDEX 01 01:26:32
  TRACK 52 AUDIO
    TITLE "15:cjc040_1277"
    INDEX 01 01:27:12
  TRACK 53 AUDIO
    TITLE "0:"
    INDEX 01 01:29:13
  TRACK 54 AUDIO
    TITLE "16:cjc040_1278"
    INDEX 01 01:29:58
  TRACK 55 AUDIO
    TITLE "0:"
    INDEX 01 01:31:02
  TRACK 56 AUDIO
    TITLE "17:cjc040_1279"
    INDEX 01 01:31:47
  TRACK 57 AUDIO
    TITLE "17:cjc040_1280"
    INDEX 01 01:35:00
  TRACK 58 AUDIO
    TITLE "0:"
    INDEX 01 01:38:20
  TRACK 59 AUDIO
    TITLE "15:cjc040_1281"
    INDEX 01 01:38:73
  TRACK 60 AUDIO
    TITLE "0:"
    INDEX 01 01:41:05
  TRACK 61 AUDIO
    TITLE "16:cjc040_1282"
    INDEX 01 01:41:61
  TRACK 62 AUDIO
    TITLE "0:"
    INDEX 01 01:44:64
  TRACK 63 AUDIO
    TITLE "17:cjc040_1283"
    INDEX 01 01:45:40
  TRACK 64 AUDIO
    TITLE "17:cjc040_1284"
    INDEX 01 01:48:32
  TRACK 65 AUDIO
    TITLE "0:"
    INDEX 01 01:52:57
  TRACK 66 AUDIO
    TITLE "15:cjc040_1285"
    INDEX 01 01:53:35
  TRACK 67 AUDIO
    TITLE "0:"
    INDEX 01 01:55:24
  TRACK 68 AUDIO
    TITLE "16:cjc040_1286"
    INDEX 01 01:56:06
  TRACK 69 AUDIO
    TITLE "0:"
    INDEX 01 01:58:42
  TRACK 70 AUDIO
    TITLE "17:cjc040_1287"
    INDEX 01 01:59:22
  TRACK 71 AUDIO
    TITLE "17:cjc040_1288"
    INDEX 01 02:01:29
  TRACK 72 AUDIO
    TITLE "0:"
    INDEX 01 02:03:34
